<?xml version="1.0" standalone="no"?>
<!DOCTYPE svg PUBLIC "-//W3C//DTD SVG 20010904//EN"
 "http://www.w3.org/TR/2001/REC-SVG-20010904/DTD/svg10.dtd">
<svg version="1.0" xmlns="http://www.w3.org/2000/svg"
 width="512.000000pt" height="512.000000pt" viewBox="0 0 512.000000 512.000000"
 preserveAspectRatio="xMidYMid meet">

<g transform="translate(0.000000,512.000000) scale(0.100000,-0.100000)"
fill="#000000" stroke="none">
<path d="M782 4880 c-359 -50 -641 -294 -748 -645 -25 -81 -27 -105 -27 -240
0 -135 2 -159 27 -240 49 -161 172 -357 261 -415 40 -26 95 -34 146 -20 39 11
99 67 562 528 285 285 529 533 543 553 74 106 29 213 -135 323 -188 126 -424
184 -629 156z m290 -375 c27 -9 50 -20 52 -24 3 -4 -156 -168 -354 -366 l-358
-358 -15 29 c-41 81 -52 249 -22 351 53 182 198 328 376 378 71 20 255 14 321
-10z"/>
<path d="M4115 4880 c-148 -21 -279 -71 -406 -156 -164 -110 -209 -217 -135
-323 14 -20 258 -268 543 -553 463 -461 523 -517 562 -528 51 -14 106 -6 146
20 89 58 212 254 261 415 25 81 27 105 27 240 0 135 -2 159 -27 240 -115 378
-430 628 -817 649 -52 2 -121 1 -154 -4z m244 -365 c300 -79 465 -373 382
-680 -25 -93 -1 -110 -395 284 l-360 360 30 12 c101 40 245 51 343 24z"/>
<path d="M2405 4344 c-16 -2 -66 -9 -110 -15 -253 -33 -520 -127 -744 -264
-139 -84 -243 -166 -366 -290 -212 -211 -354 -432 -453 -701 -255 -696 -104
-1452 400 -2003 l68 -75 -29 -30 c-16 -17 -117 -129 -225 -249 -208 -232 -225
-260 -211 -336 22 -119 154 -184 255 -125 19 11 127 122 240 247 113 124 215
236 227 248 l21 22 84 -51 c300 -181 634 -272 998 -272 364 0 698 91 998 272
l84 51 21 -22 c12 -12 114 -124 227 -248 113 -125 221 -236 240 -247 101 -59
233 6 255 125 14 76 -3 104 -211 336 -108 120 -209 232 -225 249 l-29 30 68
75 c281 307 451 669 508 1084 19 141 15 417 -9 555 -73 418 -255 769 -552
1065 -298 299 -649 478 -1075 550 -91 15 -392 28 -455 19z m370 -365 c98 -13
248 -50 338 -83 811 -306 1234 -1188 960 -2005 -154 -461 -517 -833 -973 -996
-189 -68 -322 -90 -540 -90 -218 0 -351 22 -540 90 -456 163 -819 535 -973
996 -237 706 44 1476 680 1867 313 193 673 269 1048 221z"/>
<path d="M2397 3305 c-22 -7 -50 -24 -64 -37 -53 -48 -53 -51 -53 -558 0 -515
0 -513 59 -563 54 -45 86 -48 465 -45 l353 3 40 27 c83 55 105 163 50 247 -47
71 -68 76 -359 79 l-258 3 0 357 c0 325 -2 361 -19 397 -22 49 -48 73 -98 91
-48 17 -68 17 -116 -1z"/>
</g>
</svg>
