<?xml version="1.0" standalone="no"?>
<!DOCTYPE svg PUBLIC "-//W3C//DTD SVG 20010904//EN"
 "http://www.w3.org/TR/2001/REC-SVG-20010904/DTD/svg10.dtd">
<svg version="1.0" xmlns="http://www.w3.org/2000/svg"
 width="512.000000pt" height="512.000000pt" viewBox="0 0 512.000000 512.000000"
 preserveAspectRatio="xMidYMid meet">

<g transform="translate(0.000000,512.000000) scale(0.100000,-0.100000)"
fill="#000000" stroke="none">
<path d="M247 4310 c-92 -24 -179 -97 -218 -185 -17 -38 -23 -70 -23 -135 -1
-76 2 -90 29 -139 33 -60 87 -110 154 -143 69 -34 186 -32 263 4 70 32 129 93
164 166 23 49 26 65 22 132 -5 88 -32 151 -91 212 -71 73 -203 112 -300 88z"/>
<path d="M1195 4306 c-61 -19 -96 -40 -139 -83 -122 -120 -122 -325 0 -447 22
-21 64 -51 94 -65 l55 -26 1675 0 1675 0 56 26 c117 55 184 160 184 289 0 129
-67 234 -184 289 l-56 26 -1660 2 c-1319 1 -1668 -1 -1700 -11z"/>
<path d="M235 2867 c-64 -21 -97 -42 -141 -89 -76 -79 -105 -174 -83 -276 16
-78 39 -120 94 -171 61 -56 121 -81 209 -88 65 -5 80 -3 132 21 77 35 129 87
165 161 76 158 5 348 -158 422 -66 30 -160 39 -218 20z"/>
<path d="M1169 2856 c-91 -37 -142 -86 -181 -173 -31 -67 -30 -178 1 -250 29
-66 110 -143 176 -169 49 -19 97 -19 1880 -19 l1830 0 55 26 c142 68 218 227
177 370 -32 109 -118 197 -223 227 -31 9 -489 12 -1850 12 l-1809 0 -56 -24z"/>
<path d="M235 1427 c-62 -21 -97 -42 -138 -84 -129 -128 -122 -335 15 -458 56
-51 113 -74 201 -81 67 -6 80 -4 133 20 77 35 129 87 165 161 39 81 41 184 5
262 -65 140 -245 225 -381 180z"/>
<path d="M1190 1427 c-54 -16 -135 -73 -163 -115 -47 -67 -61 -112 -60 -192 0
-98 27 -162 97 -228 99 -94 -2 -87 1261 -87 l1110 0 55 26 c224 106 253 412
53 550 -89 62 -35 59 -1227 58 -743 -1 -1102 -4 -1126 -12z"/>
</g>
</svg>
