<svg width="44" height="44" viewBox="0 0 44 44" fill="none" xmlns="http://www.w3.org/2000/svg">
<path d="M31.4465 27.673H29.4591L28.7547 26.9937C31.2201 24.1258 32.7044 20.4025 32.7044 16.3522C32.7044 7.32075 25.3836 0 16.3522 0C7.32075 0 0 7.32075 0 16.3522C0 25.3836 7.32075 32.7044 16.3522 32.7044C20.4025 32.7044 24.1258 31.2201 26.9937 28.7547L27.673 29.4591V31.4465L40.2516 44L44 40.2516L31.4465 27.673V27.673ZM16.3522 27.673C10.0881 27.673 5.03145 22.6164 5.03145 16.3522C5.03145 10.0881 10.0881 5.03145 16.3522 5.03145C22.6164 5.03145 27.673 10.0881 27.673 16.3522C27.673 22.6164 22.6164 27.673 16.3522 27.673Z" fill="#163172"/>
</svg>
